# xmcd
# Copyright (C) 1995-1998 Ti Kan
#
# Track frame offsets:
#       150
#       18129
#       35618
#       52294
#       70927
#       94059
#       107038
#       122693
#       140000
#       158888
#       172310
#       193627
#       211341
#       230754
#       248010
#       264951
#       283635
#       297092
#       317426
#       336361
#
# Disc length: 4750 seconds
#
# Revision: 0
# Processed by: cddbd v1.5.2PL0 Copyright (c) Steve Scherf et al.
# Submitted via: CD-Transfer v1.0
#
DISCID=2f128c14
DTITLE=2019-2 - 
DYEAR=19
DGENRE=
TTITLE0=Bmbmbm (Live)
TTITLE1=Fire
TTITLE2=Longshot
TTITLE3=Chrysalis
TTITLE4=Feet
TTITLE5=Better As One
TTITLE6=New Year's Day
TTITLE7=Superbike
TTITLE8=Ashes To Ashes
TTITLE9=Sucker
TTITLE10=Old Black Magic
TTITLE11=Dead Of Night
TTITLE12=Quietest Friend
TTITLE13=Need To Know
TTITLE14=Fire
TTITLE15=Seventeen
TTITLE16=Hardly To Blame
TTITLE17=Borderline
TTITLE18=Coasting
TTITLE19=This Life
EXTD=
EXTT0=
EXTT1=
EXTT2=
EXTT3=
EXTT4=
EXTT5=
EXTT6=
EXTT7=
EXTT8=
EXTT9=
EXTT10=
EXTT11=
EXTT12=
EXTT13=
EXTT14=
EXTT15=
EXTT16=
EXTT17=
EXTT18=
EXTT19=
PLAYORDER=
